<svg width="24" height="24" viewBox="0 0 24 24" fill="none" xmlns="http://www.w3.org/2000/svg">
<g clip-path="url(#clip0_29_199)">
<circle cx="12" cy="12" r="12" fill="#4356B4"/>
<path d="M8.06801 7.45531C7.50633 7.45531 7.04675 7.91488 7.04675 8.47657V8.73187C7.04675 9.29356 7.50633 9.75313 8.06801 9.75313C8.6297 9.75313 9.08928 9.29356 9.08928 8.73187V8.47657C9.08932 7.91488 8.62975 7.45531 8.06801 7.45531Z" fill="white"/>
<path d="M15.9319 7.45531C15.3702 7.45531 14.9106 7.91488 14.9106 8.47657V8.73187C14.9106 9.29356 15.3702 9.75313 15.9319 9.75313C16.4936 9.75313 16.9532 9.29356 16.9532 8.73187V8.47657C16.9532 7.91488 16.4936 7.45531 15.9319 7.45531Z" fill="white"/>
<path d="M17.8723 13.4809C17.4638 13.0724 16.8511 13.0724 16.4425 13.4809C13.9915 15.9319 10.0596 15.9319 7.60851 13.4809C7.20001 13.0724 6.58725 13.0724 6.1787 13.4809C5.77016 13.8894 5.77021 14.5021 6.1787 14.9107C7.7617 16.4937 9.90638 17.3106 12 17.3106C14.0936 17.3106 16.2383 16.5447 17.8723 14.9107C18.2809 14.5021 18.2809 13.8894 17.8723 13.4809Z" fill="white"/>
</g>
<defs>
<clipPath id="clip0_29_199">
<rect width="24" height="24" fill="white"/>
</clipPath>
</defs>
</svg>
