<svg width="21" height="18" viewBox="0 0 21 18" fill="none" xmlns="http://www.w3.org/2000/svg">
<path d="M7.96875 3C3.57469 3 0 6.154 0 10.0312C0 11.6691 0.648188 13.2562 1.82784 14.5141C2.06131 15.4768 1.77794 16.4967 1.07481 17.1998C0.780813 17.4938 0.988719 18 1.40625 18C2.742 18 4.02969 17.4768 4.98641 16.5539C5.93306 16.8918 6.93466 17.0625 7.96875 17.0625C12.3628 17.0625 16 13.9085 16 10.0312C16 6.154 12.3628 3 7.96875 3ZM4.28125 11.4375C3.50581 11.4375 2.875 10.8067 2.875 10.0312C2.875 9.25581 3.50581 8.625 4.28125 8.625C5.05669 8.625 5.6875 9.25581 5.6875 10.0312C5.6875 10.8067 5.05669 11.4375 4.28125 11.4375ZM8.03125 11.4375C7.25581 11.4375 6.625 10.8067 6.625 10.0312C6.625 9.25581 7.25581 8.625 8.03125 8.625C8.80669 8.625 9.4375 9.25581 9.4375 10.0312C9.4375 10.8067 8.80669 11.4375 8.03125 11.4375ZM11.7812 11.4375C11.0058 11.4375 10.375 10.8067 10.375 10.0312C10.375 9.25581 11.0058 8.625 11.7812 8.625C12.5567 8.625 13.1875 9.25581 13.1875 10.0312C13.1875 10.8067 12.5567 11.4375 11.7812 11.4375Z" fill="#4356B4"/>
<path d="M18.4093 4.39V5.74602C18.4093 6.30757 17.9528 6.76363 17.3909 6.76363C16.8282 6.76363 16.3725 6.30757 16.3725 5.74602V4.39H15.018C14.4561 4.39 14 3.93355 14 3.37162C14 2.81007 14.4561 2.35362 15.018 2.35362H16.3725V1.0176C16.3725 0.455666 16.8282 0 17.3909 0C17.9528 0 18.4093 0.455666 18.4093 1.0176V2.35323H19.7457C20.3084 2.35323 20.7637 2.80968 20.7637 3.37123C20.7637 3.93316 20.3084 4.38961 19.7457 4.38961H18.4093V4.39Z" fill="#4356B4"/>
</svg>
