<svg width="24" height="24" viewBox="0 0 24 24" fill="none" xmlns="http://www.w3.org/2000/svg">
<g clip-path="url(#clip0_28_2)">
<path d="M22.5712 9.85951L3.20743 1.82466C2.39166 1.48612 1.47005 1.63505 0.802319 2.21311C0.134585 2.79127 -0.144696 3.68208 0.0735535 4.53788L1.7971 11.2969H10.2358C10.6241 11.2969 10.939 11.6117 10.939 12.0001C10.939 12.3884 10.6242 12.7032 10.2358 12.7032H1.7971L0.0735535 19.4622C-0.144696 20.318 0.134538 21.2088 0.802319 21.787C1.47141 22.3662 2.39312 22.5133 3.20748 22.1754L22.5713 14.1406C23.4529 13.7748 24.0005 12.9546 24.0005 12.0001C24.0005 11.0455 23.4529 10.2253 22.5712 9.85951Z" fill="#4356B4"/>
</g>
<defs>
<clipPath id="clip0_28_2">
<rect width="24" height="24" fill="white"/>
</clipPath>
</defs>
</svg>
