<svg width="124" height="124" viewBox="0 0 124 124" fill="none" xmlns="http://www.w3.org/2000/svg">
<g clip-path="url(#clip0_84_511)">
<path d="M119.594 97.7157L99.1847 77.3067C102.895 69.8853 105.369 61.2269 105.369 52.5686C105.369 23.5012 81.868 0 52.8006 0C23.7333 0 0.232056 23.5012 0.232056 52.5686C0.232056 81.6359 23.7333 105.137 52.8006 105.137C61.459 105.137 70.1173 102.663 77.5388 98.9526L97.9478 119.362C104.132 125.546 113.409 125.546 119.594 119.362C125.16 113.177 125.16 103.9 119.594 97.7157ZM52.8006 92.7681C30.5363 92.7681 12.6011 74.8329 12.6011 52.5686C12.6011 30.3042 30.5363 12.3691 52.8006 12.3691C75.065 12.3691 93.0001 30.3042 93.0001 52.5686C93.0001 74.8329 75.065 92.7681 52.8006 92.7681Z" fill="#E1E1E1"/>
<rect x="33.9385" y="38.8312" width="6.92172" height="48.4521" rx="2" transform="rotate(-45 33.9385 38.8312)" fill="#E1E1E1"/>
<rect x="68.1975" y="33.9381" width="6.92172" height="48.4521" rx="2" transform="rotate(45 68.1975 33.9381)" fill="#E1E1E1"/>
</g>
<defs>
<clipPath id="clip0_84_511">
<rect width="124" height="124" fill="white"/>
</clipPath>
</defs>
</svg>
