<svg width="24" height="24" viewBox="0 0 24 24" fill="none" xmlns="http://www.w3.org/2000/svg">
<g clip-path="url(#clip0_28_31)">
<path d="M12 0C5.36171 0 0 5.36171 0 12C0 18.6383 5.36171 24 12 24C18.6383 24 24 18.6383 24 12C24 5.36171 18.6383 0 12 0ZM12 22.0085C6.48513 22.0085 1.99149 17.5149 1.99149 12C1.99149 6.48508 6.48513 1.99149 12 1.99149C17.5149 1.99149 22.0086 6.48513 22.0086 12C22.0086 17.5149 17.5149 22.0085 12 22.0085Z" fill="#999999"/>
<path d="M8.06808 7.45531C7.50639 7.45531 7.04681 7.91488 7.04681 8.47657V8.73187C7.04681 9.29356 7.50639 9.75313 8.06808 9.75313C8.62976 9.75313 9.08934 9.29356 9.08934 8.73187V8.47657C9.08938 7.91488 8.62981 7.45531 8.06808 7.45531Z" fill="#999999"/>
<path d="M15.9319 7.45531C15.3702 7.45531 14.9106 7.91488 14.9106 8.47657V8.73187C14.9106 9.29356 15.3702 9.75313 15.9319 9.75313C16.4936 9.75313 16.9532 9.29356 16.9532 8.73187V8.47657C16.9532 7.91488 16.4936 7.45531 15.9319 7.45531Z" fill="#999999"/>
<path d="M17.8723 13.4809C17.4638 13.0724 16.8511 13.0724 16.4425 13.4809C13.9915 15.9319 10.0596 15.9319 7.60851 13.4809C7.20001 13.0724 6.58725 13.0724 6.1787 13.4809C5.77016 13.8894 5.77021 14.5021 6.1787 14.9107C7.7617 16.4937 9.90638 17.3106 12 17.3106C14.0936 17.3106 16.2383 16.5447 17.8723 14.9107C18.2809 14.5021 18.2809 13.8894 17.8723 13.4809Z" fill="#999999"/>
</g>
<defs>
<clipPath id="clip0_28_31">
<rect width="24" height="24" fill="white"/>
</clipPath>
</defs>
</svg>
