<svg width="28" height="28" viewBox="0 0 28 28" fill="none" xmlns="http://www.w3.org/2000/svg">
<g clip-path="url(#clip0_59_391)">
<path d="M13.9453 0.875C6.2557 0.875 0 6.3945 0 13.1797C0 16.046 1.13433 18.8233 3.19873 21.0247C3.6073 22.7094 3.11139 24.4942 1.88092 25.7247C1.36642 26.2392 1.73026 27.125 2.46094 27.125C4.7985 27.125 7.05195 26.2094 8.72621 24.5944C10.3829 25.1856 12.1356 25.4844 13.9453 25.4844C21.6349 25.4844 28 19.9649 28 13.1797C28 6.3945 21.6349 0.875 13.9453 0.875ZM7.49219 15.6406C6.13517 15.6406 5.03125 14.5367 5.03125 13.1797C5.03125 11.8227 6.13517 10.7188 7.49219 10.7188C8.8492 10.7188 9.95312 11.8227 9.95312 13.1797C9.95312 14.5367 8.8492 15.6406 7.49219 15.6406ZM14.0547 15.6406C12.6977 15.6406 11.5938 14.5367 11.5938 13.1797C11.5938 11.8227 12.6977 10.7188 14.0547 10.7188C15.4117 10.7188 16.5156 11.8227 16.5156 13.1797C16.5156 14.5367 15.4117 15.6406 14.0547 15.6406ZM20.6172 15.6406C19.2602 15.6406 18.1562 14.5367 18.1562 13.1797C18.1562 11.8227 19.2602 10.7188 20.6172 10.7188C21.9742 10.7188 23.0781 11.8227 23.0781 13.1797C23.0781 14.5367 21.9742 15.6406 20.6172 15.6406Z" fill="#D2D2D2"/>
</g>
<defs>
<clipPath id="clip0_59_391">
<rect width="28" height="28" fill="white"/>
</clipPath>
</defs>
</svg>
