<svg width="24" height="24" viewBox="0 0 24 24" fill="none" xmlns="http://www.w3.org/2000/svg">
<g clip-path="url(#clip0_37_8)">
<path d="M15.2386 12L5.33048 21.9081C5.10309 22.1355 5.10309 22.5041 5.33048 22.7315L6.42838 23.8294C6.53753 23.9387 6.68566 24 6.84007 24C6.99448 24 7.14261 23.9387 7.25176 23.8294L18.6695 12.4117C18.8969 12.1843 18.8969 11.8157 18.6695 11.5883L7.25184 0.170638C7.14269 0.0614061 6.99456 7.52584e-05 6.84015 7.52449e-05C6.68574 7.52314e-05 6.53761 0.061406 6.42846 0.170638L5.33056 1.26861C5.10317 1.496 5.10317 1.86469 5.33056 2.092L15.2386 12Z" fill="white"/>
</g>
<defs>
<clipPath id="clip0_37_8">
<rect width="24" height="24" fill="white" transform="translate(24 24) rotate(-180)"/>
</clipPath>
</defs>
</svg>
