<svg width="22" height="22" viewBox="0 0 22 22" fill="none" xmlns="http://www.w3.org/2000/svg">
<g clip-path="url(#clip0_53_626)">
<path d="M20.652 4.98844C20.1199 4.4565 19.4782 4.19045 18.7262 4.19045H16.3429L15.8004 2.74354C15.6656 2.39602 15.4192 2.09629 15.0608 1.84437C14.7026 1.59256 14.3355 1.46656 13.9595 1.46656H8.51186C8.13592 1.46656 7.7688 1.59256 7.41056 1.84437C7.05232 2.09629 6.80591 2.39602 6.67112 2.74354L6.12851 4.19045H3.7452C2.9932 4.19045 2.35139 4.4565 1.81934 4.98844C1.2874 5.52042 1.02142 6.1623 1.02142 6.91423V16.4475C1.02142 17.1995 1.2874 17.8414 1.81934 18.3733C2.35139 18.9053 2.99324 19.1714 3.7452 19.1714H18.726C19.4779 19.1714 20.1196 18.9053 20.6517 18.3733C21.1836 17.8414 21.4497 17.1995 21.4497 16.4475V6.91423C21.4498 6.1623 21.1838 5.52042 20.652 4.98844ZM14.6031 15.0485C13.6703 15.9813 12.5479 16.4478 11.2356 16.4478C9.92326 16.4478 8.80094 15.9813 7.86812 15.0485C6.9353 14.1159 6.46898 12.9932 6.46898 11.6811C6.46898 10.3687 6.93545 9.24641 7.86812 8.31359C8.80083 7.38077 9.9233 6.91445 11.2356 6.91445C12.5479 6.91445 13.6703 7.38088 14.6031 8.31359C15.5359 9.2463 16.0023 10.3687 16.0023 11.6811C16.0023 12.9932 15.5359 14.1157 14.6031 15.0485Z" fill="white"/>
<path d="M11.2357 8.61661C10.3916 8.61661 9.66988 8.91631 9.07048 9.51578C8.47108 10.1152 8.17139 10.8368 8.17139 11.6811C8.17139 12.5251 8.47108 13.2468 9.07048 13.8462C9.66988 14.4455 10.3916 14.7452 11.2357 14.7452C12.0798 14.7452 12.8016 14.4455 13.401 13.8462C14.0004 13.2468 14.3001 12.5251 14.3001 11.6811C14.3001 10.8369 14.0004 10.1152 13.401 9.51578C12.8016 8.91635 12.0798 8.61661 11.2357 8.61661Z" fill="white"/>
</g>
<defs>
<clipPath id="clip0_53_626">
<rect width="21.5385" height="21.5385" fill="white" transform="scale(1.02142)"/>
</clipPath>
</defs>
</svg>
