<svg width="28" height="28" viewBox="0 0 28 28" fill="none" xmlns="http://www.w3.org/2000/svg">
<g clip-path="url(#clip0_59_341)">
<path d="M1.74555 14.2038C2.74196 13.1985 4.05882 12.5863 5.4566 12.4569C4.24995 11.3713 3.48863 9.80411 3.48863 8.05338C3.48863 4.77811 6.14274 2.12399 9.41866 2.12399C12.5474 2.12399 15.1091 4.54748 15.3315 7.61889C12.548 8.82299 10.5947 11.5969 10.5947 14.8174C10.5947 15.9934 10.8623 17.1427 11.3599 18.1857C10.6431 18.5603 9.98248 19.0445 9.40655 19.6255C7.92978 21.1124 7.09073 23.1683 7.10666 25.2644L7.10793 25.307L7.10921 25.3434L7.16145 26.3353H0.0585356L-7.62939e-05 18.48C-0.0121803 16.8777 0.615354 15.3411 1.74555 14.2038Z" fill="#D2D2D2"/>
<path d="M14.4733 19.2222C13.2673 18.1372 12.5034 16.5693 12.5034 14.8186C12.5034 11.5427 15.1588 8.88794 18.4341 8.88794C21.71 8.88794 24.3648 11.5427 24.3648 14.8186C24.3648 16.5661 23.6041 18.1327 22.4 19.2183C25.4835 19.4573 27.9191 22.0107 27.9414 25.1547L28 26.3353H18.9833H9.07462L9.01601 25.2433C9.00454 23.6417 9.63271 22.105 10.7623 20.9678C11.76 19.9618 13.0762 19.3515 14.4733 19.2222Z" fill="#D2D2D2"/>
</g>
<defs>
<clipPath id="clip0_59_341">
<rect width="28" height="28" fill="white" transform="matrix(-1 0 0 1 28 0)"/>
</clipPath>
</defs>
</svg>
